<?xml version="1.0" encoding="UTF-8" standalone="no"?>
<svg
   xmlns:dc="http://purl.org/dc/elements/1.1/"
   xmlns:cc="http://creativecommons.org/ns#"
   xmlns:rdf="http://www.w3.org/1999/02/22-rdf-syntax-ns#"
   xmlns:svg="http://www.w3.org/2000/svg"
   xmlns="http://www.w3.org/2000/svg"
   xmlns:sodipodi="http://sodipodi.sourceforge.net/DTD/sodipodi-0.dtd"
   xmlns:inkscape="http://www.inkscape.org/namespaces/inkscape"
   id="Layer_1"
   data-name="Layer 1"
   viewBox="0 0 612 792"
   version="1.1"
   sodipodi:docname="ae.svg"
   inkscape:version="1.0.1 (3bc2e813f5, 2020-09-07)"
   width="636" height="1200">
  <metadata
     id="metadata300">
    <rdf:RDF>
      <cc:Work
         rdf:about="">
        <dc:format>image/svg+xml</dc:format>
        <dc:type
           rdf:resource="http://purl.org/dc/dcmitype/StillImage" />
      </cc:Work>
    </rdf:RDF>
  </metadata>
  <sodipodi:namedview
     pagecolor="#ffffff"
     bordercolor="#666666"
     borderopacity="1"
     objecttolerance="10"
     gridtolerance="10"
     guidetolerance="10"
     inkscape:pageopacity="0"
     inkscape:pageshadow="2"
     inkscape:window-width="1280"
     inkscape:window-height="961"
     id="namedview298"
     showgrid="false"
     inkscape:zoom="0.9280303"
     inkscape:cx="306"
     inkscape:cy="396"
     inkscape:window-x="-8"
     inkscape:window-y="-8"
     inkscape:window-maximized="1"
     inkscape:current-layer="Layer_1"
     inkscape:document-rotation="0" />
  <defs
     id="defs187">
    <style
       id="style185">.cls-1,.cls-2{fill:none;stroke:#231f20;stroke-miterlimit:10;stroke-width:0.57px;}.cls-1{fill-rule:evenodd;}</style>
  </defs>
  <title
     id="title189">AE</title>
  <path
     id="polygon191"
     style="fill:none;fill-rule:evenodd;stroke:#231f20;stroke-width:0.57px;stroke-miterlimit:10"
     d="M 521.66992 158.83008 L 500.25 164.91992 L 460.5 168.58984 L 410.11914 168.58984 L 410.25 168.5293 L 365.75977 168.5293 L 365.75 168.5 L 346.5293 168.5 L 335.5 168.5 L 350.19141 215.87305 L 340.33008 213 L 317.62109 189.64062 L 317.13281 188.8457 L 330.16992 184.25 L 335.5 168.5 L 287.08008 168.41992 L 293.49023 180.80273 L 292.27148 181.27539 L 287.08008 168.41992 L 261.08008 168.83008 L 260.83008 173.75 L 269.58008 174.16992 L 280.83008 176.08008 L 292.13477 181.32812 L 292 181.38086 L 295.33789 184.37305 L 301.46484 196.20508 L 287.43945 216.68945 L 306.9707 206.83984 L 314.09961 220.60938 L 296.48047 232.44922 L 284.12891 284.55469 L 283.5 259.88086 L 260.13086 256.88086 L 240.93945 285.11914 L 206.5 336.33008 L 171.67578 388.57227 L 171.33008 388.66992 L 171.58398 388.70898 L 139.13086 437.5 L 112.63086 476.5 L 155.25 450.75 L 163 435.13086 L 144.51172 436.9668 L 182.08008 390.41992 L 177.13672 389.54688 L 182.33008 390.33008 L 163 435.13086 L 169 458.33008 L 216 387 L 214.66992 376.33008 L 171.67969 388.57031 L 209.33008 350.18945 L 214.66992 376.33008 L 258.33008 322.33008 L 253.7832 304.87891 L 253.83008 304.83008 L 284.10742 284.64648 L 284.09961 284.67969 L 284.08984 284.7207 L 308.38086 248.5 L 315.01758 222.38477 L 320.53906 233.05078 L 325.25 226.5 L 346.9707 281.7207 L 347.03906 281.88086 L 350.63086 291 L 350.63086 216 L 350.62109 215.99805 L 350.66992 186.33008 L 371.75 186.33008 L 365.76758 168.55078 L 389.25 175.13086 L 395.14844 175.51172 L 410.0957 168.59961 L 471.53711 172.11133 L 445.25 178.7207 L 459.21875 181.50977 L 445.25 178.75 L 395.14844 175.51172 L 371.75 186.33008 L 392.88086 186.33008 L 484 186.41016 L 483.96094 186.40039 L 483.7832 186.36523 L 493.65234 173.375 L 502.0918 173.85742 L 503.82031 180.76562 L 484.18945 186.41016 L 484 186.41016 L 495.93945 189.38086 L 508.13086 198 L 516.41992 211.33008 L 516.83008 230.16992 L 517.83008 230.91992 L 523 230.91992 L 523.58984 229.16016 L 523.58984 203.5 L 523.58984 175.08008 L 510.89648 178.73047 L 507.2168 174.15039 L 523.5 175.08008 L 523.5 161.08008 L 522.91992 159.08008 L 521.66992 158.83008 z M 320.53906 233.05078 L 309.25 248.75 L 308.38086 248.5 L 309.25 249.62891 L 309.25 335.66992 L 309.25 363.7207 L 307.5 364.41992 L 263.31055 364.48047 L 233 364 L 214.66992 376.33008 L 222.16992 380.66992 L 247.83008 380.5 L 253.33008 375.16992 L 263.73242 365.23242 L 278.66016 380.58984 L 275.35938 372 L 263.73438 365.23242 L 264.31641 364.67383 L 309.25 373.3418 L 309.25 414 L 309.25 475 L 324.90039 468.3125 L 309.29492 413.96484 L 329.52344 397.94141 L 337.33008 463 L 350.68164 470.72266 L 334.7207 491.99023 L 337.33008 463 L 324.90039 468.3125 L 334 500 L 334.7168 492.03516 L 350.66797 506.96289 L 319.77148 542.05078 L 309.25 534.75 L 294.6543 570.375 L 298.10352 553.22656 L 289.81055 559.01953 L 278.75 564.75 L 260.83008 564.75 L 260.83008 570.75 L 294.5 570.75 L 360.86914 570.68945 L 379.63086 570.71094 L 398.08008 552.25 L 401.18945 552.25 L 456.66992 552.25 L 483.66992 548.66992 L 506 539 L 525.92969 525.19922 L 397.91016 552.25 L 352.03906 552.25 L 350.68945 551.21094 L 360.76562 570.49219 L 338.91406 555.33008 L 350.68945 551.25 L 350.68945 551.21094 L 350.68945 506.98242 L 350.75 507.03906 L 350.75 470.76172 L 350.7793 470.7793 L 350.63086 419.93945 L 329.61328 397.86914 L 350.52734 381.30273 L 350.66992 381.33008 L 350.63086 381.21484 L 350.63086 364.25 L 350.63086 303.15039 L 350.66992 291.25 L 320.53906 233.05078 z M 298.10352 553.22656 L 299.5 552.25 L 309.25 534.75 L 309.25 516.33984 L 309.25 497.81055 L 298.10352 553.22656 z M 309.25 497.81055 L 334.00977 500.40039 L 309.25 475 L 309.25 497.81055 z M 233 364 L 284.09961 284.67969 L 243.66992 346.16992 L 233.66992 360.66992 L 233 364 z M 155.25 450.75 L 112.66992 507.16992 L 131.08008 499.75 L 129.16992 518.66992 L 149.5 488.25 L 155.25 450.75 z M 129.16992 518.66992 L 124.66992 517.66992 L 112.66992 507.16992 L 96 543.13086 L 75.810547 531.68945 L 66.439453 543.63086 L 55.640625 553.90039 L 80.330078 548.66992 L 55.580078 554.07031 L 73 569.66992 L 73.5 570.16992 L 123.16992 570.33008 L 120.66992 554.16992 L 104.80469 552.00781 L 120.75 554 L 118.5 545.16992 L 119 534.66992 L 129.16992 518.66992 z M 120.75 554 L 123.16992 570.33008 L 127.63086 570.38086 L 127.63477 570.37891 L 127.65039 570.39062 L 146.83008 570.5 L 148.16992 569 L 147.75 565.91992 L 144.33008 565.75 L 136.125 565.08789 L 127.68945 560.06055 L 120.75 554 z M 73.5 570.16992 L 55.580078 554.07031 L 55.5 554 L 44 562.5 L 25.419922 566.25 L 25.439453 570.56055 L 36.919922 570.58008 L 73.5 570.16992 z M 75.810547 531.68945 L 112.66992 507.16992 L 112.63086 476.5 L 75.810547 531.68945 z M 260.13086 256.88086 L 296.48047 232.44922 L 299.66992 219 L 287.43945 216.68945 L 260.13086 256.88086 z M 143.31445 186.95508 A 0.53823674 0.53823674 0 0 0 142.77539 187.49414 A 0.53823674 0.53823674 0 0 0 143.31445 188.03125 A 0.53823674 0.53823674 0 0 0 143.85156 187.49414 A 0.53823674 0.53823674 0 0 0 143.31445 186.95508 z M 350.25195 303.70508 L 332.88086 329.13086 L 329.76172 319.97461 L 343.66992 309.33008 L 350.25195 303.70508 z M 493.58008 327.91992 L 490.16992 329.08008 L 489.91992 337.83008 L 486.91992 348.5 L 476.50781 358.84375 L 465.21094 363.53906 L 453.51758 364.05859 L 453.65039 364.01953 L 404.62695 364.08984 L 404.63086 364.08008 L 372.33984 364.08008 L 371.78906 364.08008 L 352.03906 364.08008 L 350.9707 362.88086 L 358.34961 380.33008 L 367.25 380.33008 L 371.7793 364.11523 L 385.3457 372.45117 L 367.25 380.33008 L 398.16797 380.33008 L 398.25 380.38086 L 398.27344 380.32422 L 398.31445 380.31055 L 458.25 380.5 L 468.15039 368.76953 L 494.52148 358.07812 L 458.25 380.5 L 463.75 380.5 L 470.68945 382.13086 L 484.25 392.25 L 488.25 398.66992 L 490.25 409.66992 L 490.33008 416.83008 L 495.16992 416.7793 L 495.31055 357.75781 L 495.33008 357.75 L 495.33008 328.75 L 493.58008 327.91992 z M 358.33008 380.33008 L 352.53906 380.38086 L 350.66992 381.46094 L 358.33008 380.33008 z M 247.75 380.63086 L 309.19922 380.63086 L 247.75 380.63086 z M 169.10938 458.2207 L 149.66992 488.08008 L 169.10938 458.2207 z M 557.66992 476.66992 L 547 497 L 526 525.13086 L 542.66992 528.33008 L 561.33008 479 L 557.66992 476.66992 z M 542.66992 528.33008 L 524.66016 570.75 L 525.83008 569.75 L 542.66992 528.33008 z M 483.81055 548.68945 L 461.16992 560 L 493.98047 570.75195 L 493.98242 570.75195 L 494.13086 570.80078 L 494.16016 570.75977 L 524.65039 570.75977 L 524.67969 569.75977 L 524.67578 569.75977 L 494.16211 570.75781 L 504.40039 556.48047 L 483.81055 548.68945 z M 493.98047 570.75195 L 467.65039 570.92969 L 467.64258 570.92969 L 467.63086 570.9707 L 493.98047 570.75195 z M 467.64258 570.92969 L 468.33008 568.66992 L 461.16992 560 L 379.58008 570.7207 L 467.64258 570.92969 z " />
</svg>
